<svg version="1.1" xmlns="http://www.w3.org/2000/svg"

    
xmlns:xlink="http://www.w3.org/1999/xlink" x="0" y="0"
    
width="900" height="600" 
viewBox="-1, -1, 30, 40">
    
<defs>
<marker id="arrow" markerWidth="1" markerHeight="1" refX="0", refY="3" orient="auto" overflow="visible" markerUnits="strokeWidth">
        <path d="M-7,0 L-7,6 L0,3 z" fill="#fff" stroke="black" fill-opacity="1.0"/>
        </marker>
        

</defs>
        

        <style>
            .fill_white { fill: white; }
            .fill_black { fill: black; }
            .fill_red { fill: #FF3333; }
            .fill_orange { fill: #FFAA00; }
            .fill_yellow { fill: #FFFF00; }
            .fill_green { fill: #00FF00; }
            .fill_avocado { fill: #9bd975; }
            .fill_cyan { fill: #00FFFF; }
            .fill_lightblue { fill: #00AAFF; }
            .fill_blue { fill: #0000FF; }
            .fill_indigo { fill: #4400FF; }
            .fill_violet { fill: #AA00FF; }
            .fill_none { fill: none;}

            .fill_garnet { fill: #ca2020;}
            .fill_buttercup { fill: #dbac01;}
            .fill_jade { fill: #05776a;}
            .fill_topaz { fill: #246bcd;}

            .fill_alpha_none { fill-opacity: 0.0;}
            .fill_alpha_25pc { fill-opacity: 0.25;}
            .fill_alpha_50pc { fill-opacity: 0.5;}
            .fill_alpha_100pc { fill-opacity: 1.0;}

            .stroke_white { stroke: white; }
            .stroke_black { stroke: black; }
            .stroke_red { stroke: #FF3333; }
            .stroke_orange { stroke: #FFAA00; }
            .stroke_yellow { stroke: #FFFF00; }
            .stroke_green { stroke: #00FF00; }
            .stroke_avocado { stroke: #9bd975; }
            .stroke_cyan { stroke: #00FFFF; }
            .stroke_lightblue { stroke: #00AAFF; }
            .stroke_blue { stroke: #0000FF; }
            .stroke_indigo { stroke: #4400FF;}
            .stroke_violet { stroke: #AA00FF; }
            .stroke_garnet { stroke: #ca2020;}
            .stroke_buttercup { stroke: #dbac01; }
            .stroke_jade { stroke: #05776a; }
            .stroke_topaz { stroke: #246bcd; }
            .stroke_none { stroke: none;}

            .stroke_width_fine { stroke-width:0.03; }
            .stroke_width_thin { stroke-width:0.05; }
            .stroke_width_mid { stroke-width:0.1; }
            .stroke_width_wide { stroke-width:0.5; }

            .font_size_tiny { font-size: 0.01em;}
            .font_size_small { font-size: 0.03em;}
            .font_size_medium { font-size: 0.07em;}
            .font_size_large { font-size: 0.1em;}
            .font_size_huge { font-size: 0.2em;}

        </style>
<g id="test">
<circle class="stroke_black fill_white stroke_width_thin" cx="13.988222527020614" cy="30.0" r="1" /><circle class="stroke_black fill_white stroke_width_thin" cx="11.432018584549402" cy="30.0" r="1" /><circle class="stroke_black fill_white stroke_width_thin" cx="8.875814642078193" cy="30.0" r="1" /><circle class="stroke_black fill_white stroke_width_thin" cx="11.432018584549402" cy="26.666666666666664" r="1" /><circle class="stroke_black fill_white stroke_width_thin" cx="13.988222527020614" cy="26.666666666666664" r="1" /><circle class="stroke_black fill_white stroke_width_thin" cx="11.432018584549402" cy="23.333333333333332" r="1" /><circle class="stroke_black fill_white stroke_width_thin" cx="13.988222527020614" cy="23.333333333333332" r="1" /><circle class="stroke_black fill_white stroke_width_thin" cx="10.153916613313799" cy="20.0" r="1" /><circle class="stroke_black fill_white stroke_width_thin" cx="12.710120555785007" cy="20.0" r="1" /><circle class="stroke_black fill_white stroke_width_thin" cx="15.44383866092783" cy="20.0" r="1" /><circle class="stroke_black fill_white stroke_width_thin" cx="12.532606393113396" cy="16.666666666666668" r="1" /><circle class="stroke_black fill_white stroke_width_thin" cx="28.36686970342117" cy="0.0" r="1" /><circle class="stroke_black fill_white stroke_width_thin" cx="18.355070928742265" cy="16.666666666666668" r="1" /><circle class="stroke_black fill_white stroke_width_thin" cx="7.8817353311171665" cy="0.0" r="1" /><circle class="stroke_black fill_white stroke_width_thin" cx="1.6331302965788286" cy="0.0" r="1" /><circle class="stroke_black fill_white stroke_width_thin" cx="15.798866986271054" cy="13.333333333333332" r="1" /><circle class="stroke_black fill_white stroke_width_thin" cx="18.355070928742265" cy="13.333333333333332" r="1" /><circle class="stroke_black fill_white stroke_width_thin" cx="18.355070928742265" cy="10.0" r="1" /><circle class="stroke_black fill_white stroke_width_thin" cx="15.798866986271054" cy="10.0" r="1" /><circle class="stroke_black fill_white stroke_width_thin" cx="18.319568096207945" cy="6.666666666666666" r="1" /><circle class="stroke_black fill_white stroke_width_thin" cx="23.609490143821972" cy="0.0" r="1" /><circle class="stroke_black fill_white stroke_width_thin" cx="15.585849991065118" cy="0.0" r="1" /><circle class="stroke_black fill_white stroke_width_thin" cx="18.319568096207945" cy="3.333333333333333" r="1" /><circle class="stroke_black fill_white stroke_width_thin" cx="20.875772038679152" cy="3.333333333333333" r="1" /><circle class="stroke_black fill_white stroke_width_thin" cx="12.639114890716362" cy="0.0" r="1" /><circle class="stroke_black fill_white stroke_width_thin" cx="19.59767006744355" cy="0.0" r="1" /><circle class="stroke_black fill_white stroke_width_thin" cx="12.639114890716362" cy="3.333333333333333" r="0" /><circle class="stroke_black fill_white stroke_width_thin" cx="15.585849991065118" cy="3.333333333333333" r="0" /><circle class="stroke_black fill_white stroke_width_thin" cx="23.609490143821972" cy="3.333333333333333" r="0" /><circle class="stroke_black fill_white stroke_width_thin" cx="0.10650849760296709" cy="3.333333333333333" r="0" /><circle class="stroke_black fill_white stroke_width_thin" cx="0.07100566506864472" cy="6.666666666666666" r="0" /><circle class="stroke_black fill_white stroke_width_thin" cx="0.0" cy="10.0" r="0" /><circle class="stroke_black fill_white stroke_width_thin" cx="1.6331302965788286" cy="13.333333333333332" r="0" /><circle class="stroke_black fill_white stroke_width_thin" cx="2.449801953365846" cy="16.666666666666668" r="0" /><circle class="stroke_black fill_white stroke_width_thin" cx="3.0888529389836483" cy="3.333333333333333" r="0" /><circle class="stroke_black fill_white stroke_width_thin" cx="3.0888529389836483" cy="6.666666666666666" r="0" /><circle class="stroke_black fill_white stroke_width_thin" cx="3.124355771517971" cy="10.0" r="0" /><circle class="stroke_black fill_white stroke_width_thin" cx="9.621374125298962" cy="13.333333333333332" r="0" /><circle class="stroke_black fill_white stroke_width_thin" cx="9.621374125298962" cy="16.666666666666668" r="0" /><circle class="stroke_black fill_white stroke_width_thin" cx="6.248605034538338" cy="3.333333333333333" r="0" /><circle class="stroke_black fill_white stroke_width_thin" cx="6.319610699606983" cy="6.666666666666666" r="0" /><circle class="stroke_black fill_white stroke_width_thin" cx="6.390616364675628" cy="10.0" r="0" /><circle class="stroke_black fill_white stroke_width_thin" cx="6.3551135321413055" cy="13.333333333333332" r="0" /><circle class="stroke_black fill_white stroke_width_thin" cx="6.3551135321413055" cy="16.666666666666668" r="0" /><circle class="stroke_black fill_white stroke_width_thin" cx="9.514865627695995" cy="3.333333333333333" r="0" /><circle class="stroke_black fill_white stroke_width_thin" cx="10.402436441054054" cy="6.666666666666666" r="0" /><circle class="stroke_black fill_white stroke_width_thin" cx="11.290007254412114" cy="10.0" r="0" /><circle class="stroke_black fill_white stroke_width_thin" cx="12.88763471845662" cy="13.333333333333332" r="0" /><circle class="stroke_black fill_white stroke_width_thin" cx="15.44383866092783" cy="16.666666666666668" r="0" /><circle class="stroke_black fill_white stroke_width_thin" cx="30.0" cy="3.333333333333333" r="0" /><circle class="stroke_black fill_white stroke_width_thin" cx="29.325446181847877" cy="6.666666666666666" r="0" /><circle class="stroke_black fill_white stroke_width_thin" cx="28.47337820102414" cy="10.0" r="0" /><circle class="stroke_black fill_white stroke_width_thin" cx="26.911253569513953" cy="13.333333333333332" r="0" /><circle class="stroke_black fill_white stroke_width_thin" cx="25.881671426018606" cy="16.666666666666668" r="0" /><circle class="stroke_black fill_white stroke_width_thin" cx="26.733739406842343" cy="3.333333333333333" r="0" /><circle class="stroke_black fill_white stroke_width_thin" cx="23.325467483547396" cy="6.666666666666666" r="0" /><circle class="stroke_black fill_white stroke_width_thin" cx="22.650913665395272" cy="10.0" r="0" /><circle class="stroke_black fill_white stroke_width_thin" cx="21.940857014708826" cy="13.333333333333332" r="0" /><circle class="stroke_black fill_white stroke_width_thin" cx="21.5858286893656" cy="16.666666666666668" r="0" /><text class="font_size_medium" x="13.988222527020614" y="30.0" text-anchor="middle" alignment-baseline="middle" font-size="30px" >A</text><text class="font_size_medium" x="11.432018584549402" y="30.0" text-anchor="middle" alignment-baseline="middle" font-size="30px" >B</text><text class="font_size_medium" x="8.875814642078193" y="30.0" text-anchor="middle" alignment-baseline="middle" font-size="30px" >C</text><text class="font_size_medium" x="11.432018584549402" y="26.666666666666664" text-anchor="middle" alignment-baseline="middle" font-size="30px" >D</text><text class="font_size_medium" x="13.988222527020614" y="26.666666666666664" text-anchor="middle" alignment-baseline="middle" font-size="30px" >E</text><text class="font_size_medium" x="11.432018584549402" y="23.333333333333332" text-anchor="middle" alignment-baseline="middle" font-size="30px" >F</text><text class="font_size_medium" x="13.988222527020614" y="23.333333333333332" text-anchor="middle" alignment-baseline="middle" font-size="30px" >G</text><text class="font_size_medium" x="10.153916613313799" y="20.0" text-anchor="middle" alignment-baseline="middle" font-size="30px" >H</text><text class="font_size_medium" x="12.710120555785007" y="20.0" text-anchor="middle" alignment-baseline="middle" font-size="30px" >I</text><text class="font_size_medium" x="15.44383866092783" y="20.0" text-anchor="middle" alignment-baseline="middle" font-size="30px" >J</text><text class="font_size_medium" x="12.532606393113396" y="16.666666666666668" text-anchor="middle" alignment-baseline="middle" font-size="30px" >K</text><text class="font_size_medium" x="28.36686970342117" y="0.0" text-anchor="middle" alignment-baseline="middle" font-size="30px" >L</text><text class="font_size_medium" x="18.355070928742265" y="16.666666666666668" text-anchor="middle" alignment-baseline="middle" font-size="30px" >M</text><text class="font_size_medium" x="7.8817353311171665" y="0.0" text-anchor="middle" alignment-baseline="middle" font-size="30px" >N</text><text class="font_size_medium" x="1.6331302965788286" y="0.0" text-anchor="middle" alignment-baseline="middle" font-size="30px" >O</text><text class="font_size_medium" x="15.798866986271054" y="13.333333333333332" text-anchor="middle" alignment-baseline="middle" font-size="30px" >P</text><text class="font_size_medium" x="18.355070928742265" y="13.333333333333332" text-anchor="middle" alignment-baseline="middle" font-size="30px" >Q</text><text class="font_size_medium" x="18.355070928742265" y="10.0" text-anchor="middle" alignment-baseline="middle" font-size="30px" >R</text><text class="font_size_medium" x="15.798866986271054" y="10.0" text-anchor="middle" alignment-baseline="middle" font-size="30px" >S</text><text class="font_size_medium" x="18.319568096207945" y="6.666666666666666" text-anchor="middle" alignment-baseline="middle" font-size="30px" >T</text><text class="font_size_medium" x="23.609490143821972" y="0.0" text-anchor="middle" alignment-baseline="middle" font-size="30px" >U</text><text class="font_size_medium" x="15.585849991065118" y="0.0" text-anchor="middle" alignment-baseline="middle" font-size="30px" >V</text><text class="font_size_medium" x="18.319568096207945" y="3.333333333333333" text-anchor="middle" alignment-baseline="middle" font-size="30px" >W</text><text class="font_size_medium" x="20.875772038679152" y="3.333333333333333" text-anchor="middle" alignment-baseline="middle" font-size="30px" >X</text><text class="font_size_medium" x="12.639114890716362" y="0.0" text-anchor="middle" alignment-baseline="middle" font-size="30px" >Y</text><text class="font_size_medium" x="19.59767006744355" y="0.0" text-anchor="middle" alignment-baseline="middle" font-size="30px" >Z</text><text class="font_size_tiny" x="12.639114890716362" y="3.333333333333333" text-anchor="middle" alignment-baseline="middle" font-size="30px" >__v_0</text><text class="font_size_tiny" x="15.585849991065118" y="3.333333333333333" text-anchor="middle" alignment-baseline="middle" font-size="30px" >__v_1</text><text class="font_size_tiny" x="23.609490143821972" y="3.333333333333333" text-anchor="middle" alignment-baseline="middle" font-size="30px" >__v_2</text><text class="font_size_tiny" x="0.10650849760296709" y="3.333333333333333" text-anchor="middle" alignment-baseline="middle" font-size="30px" >__v_3</text><text class="font_size_tiny" x="0.07100566506864472" y="6.666666666666666" text-anchor="middle" alignment-baseline="middle" font-size="30px" >__v_4</text><text class="font_size_tiny" x="0.0" y="10.0" text-anchor="middle" alignment-baseline="middle" font-size="30px" >__v_5</text><text class="font_size_tiny" x="1.6331302965788286" y="13.333333333333332" text-anchor="middle" alignment-baseline="middle" font-size="30px" >__v_6</text><text class="font_size_tiny" x="2.449801953365846" y="16.666666666666668" text-anchor="middle" alignment-baseline="middle" font-size="30px" >__v_7</text><text class="font_size_tiny" x="3.0888529389836483" y="3.333333333333333" text-anchor="middle" alignment-baseline="middle" font-size="30px" >__v_8</text><text class="font_size_tiny" x="3.0888529389836483" y="6.666666666666666" text-anchor="middle" alignment-baseline="middle" font-size="30px" >__v_9</text><text class="font_size_tiny" x="3.124355771517971" y="10.0" text-anchor="middle" alignment-baseline="middle" font-size="30px" >__v_10</text><text class="font_size_tiny" x="9.621374125298962" y="13.333333333333332" text-anchor="middle" alignment-baseline="middle" font-size="30px" >__v_11</text><text class="font_size_tiny" x="9.621374125298962" y="16.666666666666668" text-anchor="middle" alignment-baseline="middle" font-size="30px" >__v_12</text><text class="font_size_tiny" x="6.248605034538338" y="3.333333333333333" text-anchor="middle" alignment-baseline="middle" font-size="30px" >__v_13</text><text class="font_size_tiny" x="6.319610699606983" y="6.666666666666666" text-anchor="middle" alignment-baseline="middle" font-size="30px" >__v_14</text><text class="font_size_tiny" x="6.390616364675628" y="10.0" text-anchor="middle" alignment-baseline="middle" font-size="30px" >__v_15</text><text class="font_size_tiny" x="6.3551135321413055" y="13.333333333333332" text-anchor="middle" alignment-baseline="middle" font-size="30px" >__v_16</text><text class="font_size_tiny" x="6.3551135321413055" y="16.666666666666668" text-anchor="middle" alignment-baseline="middle" font-size="30px" >__v_17</text><text class="font_size_tiny" x="9.514865627695995" y="3.333333333333333" text-anchor="middle" alignment-baseline="middle" font-size="30px" >__v_18</text><text class="font_size_tiny" x="10.402436441054054" y="6.666666666666666" text-anchor="middle" alignment-baseline="middle" font-size="30px" >__v_19</text><text class="font_size_tiny" x="11.290007254412114" y="10.0" text-anchor="middle" alignment-baseline="middle" font-size="30px" >__v_20</text><text class="font_size_tiny" x="12.88763471845662" y="13.333333333333332" text-anchor="middle" alignment-baseline="middle" font-size="30px" >__v_21</text><text class="font_size_tiny" x="15.44383866092783" y="16.666666666666668" text-anchor="middle" alignment-baseline="middle" font-size="30px" >__v_22</text><text class="font_size_tiny" x="30.0" y="3.333333333333333" text-anchor="middle" alignment-baseline="middle" font-size="30px" >__v_23</text><text class="font_size_tiny" x="29.325446181847877" y="6.666666666666666" text-anchor="middle" alignment-baseline="middle" font-size="30px" >__v_24</text><text class="font_size_tiny" x="28.47337820102414" y="10.0" text-anchor="middle" alignment-baseline="middle" font-size="30px" >__v_25</text><text class="font_size_tiny" x="26.911253569513953" y="13.333333333333332" text-anchor="middle" alignment-baseline="middle" font-size="30px" >__v_26</text><text class="font_size_tiny" x="25.881671426018606" y="16.666666666666668" text-anchor="middle" alignment-baseline="middle" font-size="30px" >__v_27</text><text class="font_size_tiny" x="26.733739406842343" y="3.333333333333333" text-anchor="middle" alignment-baseline="middle" font-size="30px" >__v_28</text><text class="font_size_tiny" x="23.325467483547396" y="6.666666666666666" text-anchor="middle" alignment-baseline="middle" font-size="30px" >__v_29</text><text class="font_size_tiny" x="22.650913665395272" y="10.0" text-anchor="middle" alignment-baseline="middle" font-size="30px" >__v_30</text><text class="font_size_tiny" x="21.940857014708826" y="13.333333333333332" text-anchor="middle" alignment-baseline="middle" font-size="30px" >__v_31</text><text class="font_size_tiny" x="21.5858286893656" y="16.666666666666668" text-anchor="middle" alignment-baseline="middle" font-size="30px" >__v_32</text><path class="stroke_black stroke_width_thin" d="M11.432018584549402 26.666666666666664 L11.432018584549402 30.0" marker-end="url(#arrow)"/><path class="stroke_black stroke_width_thin" d="M11.432018584549402 26.666666666666664 L8.875814642078193 30.0" marker-end="url(#arrow)"/><path class="stroke_black stroke_width_thin" d="M13.988222527020614 26.666666666666664 L13.988222527020614 30.0" marker-end="url(#arrow)"/><path class="stroke_black stroke_width_thin" d="M11.432018584549402 23.333333333333332 L13.988222527020614 26.666666666666664" marker-end="url(#arrow)"/><path class="stroke_black stroke_width_thin" d="M11.432018584549402 23.333333333333332 L11.432018584549402 26.666666666666664" marker-end="url(#arrow)"/><path class="stroke_black stroke_width_thin" d="M13.988222527020614 23.333333333333332 L11.432018584549402 26.666666666666664" marker-end="url(#arrow)"/><path class="stroke_black stroke_width_thin" d="M13.988222527020614 23.333333333333332 L13.988222527020614 26.666666666666664" marker-end="url(#arrow)"/><path class="stroke_black stroke_width_thin" d="M10.153916613313799 20.0 L13.988222527020614 23.333333333333332" marker-end="url(#arrow)"/><path class="stroke_black stroke_width_thin" d="M10.153916613313799 20.0 L11.432018584549402 23.333333333333332" marker-end="url(#arrow)"/><path class="stroke_black stroke_width_thin" d="M12.710120555785007 20.0 L11.432018584549402 23.333333333333332" marker-end="url(#arrow)"/><path class="stroke_black stroke_width_thin" d="M12.710120555785007 20.0 L13.988222527020614 23.333333333333332" marker-end="url(#arrow)"/><path class="stroke_black stroke_width_thin" d="M15.44383866092783 20.0 L11.432018584549402 23.333333333333332" marker-end="url(#arrow)"/><path class="stroke_black stroke_width_thin" d="M15.44383866092783 20.0 L13.988222527020614 23.333333333333332" marker-end="url(#arrow)"/><path class="stroke_black stroke_width_thin" d="M12.532606393113396 16.666666666666668 L12.710120555785007 20.0" marker-end="url(#arrow)"/><path class="stroke_black stroke_width_thin" d="M12.532606393113396 16.666666666666668 L10.153916613313799 20.0" marker-end="url(#arrow)"/><path class="stroke_black stroke_width_thin" d="M18.355070928742265 16.666666666666668 L15.44383866092783 20.0" marker-end="url(#arrow)"/><path class="stroke_black stroke_width_thin" d="M15.798866986271054 13.333333333333332 L12.532606393113396 16.666666666666668" marker-end="url(#arrow)"/><path class="stroke_black stroke_width_thin" d="M15.798866986271054 13.333333333333332 L18.355070928742265 16.666666666666668" marker-end="url(#arrow)"/><path class="stroke_black stroke_width_thin" d="M18.355070928742265 13.333333333333332 L12.532606393113396 16.666666666666668" marker-end="url(#arrow)"/><path class="stroke_black stroke_width_thin" d="M18.355070928742265 13.333333333333332 L18.355070928742265 16.666666666666668" marker-end="url(#arrow)"/><path class="stroke_black stroke_width_thin" d="M18.355070928742265 10.0 L18.355070928742265 13.333333333333332" marker-end="url(#arrow)"/><path class="stroke_black stroke_width_thin" d="M15.798866986271054 10.0 L15.798866986271054 13.333333333333332" marker-end="url(#arrow)"/><path class="stroke_black stroke_width_thin" d="M18.319568096207945 6.666666666666666 L15.798866986271054 10.0" marker-end="url(#arrow)"/><path class="stroke_black stroke_width_thin" d="M18.319568096207945 6.666666666666666 L18.355070928742265 10.0" marker-end="url(#arrow)"/><path class="stroke_black stroke_width_thin" d="M18.319568096207945 3.333333333333333 L18.319568096207945 6.666666666666666" marker-end="url(#arrow)"/><path class="stroke_black stroke_width_thin" d="M20.875772038679152 3.333333333333333 L18.319568096207945 6.666666666666666" marker-end="url(#arrow)"/><path class="stroke_black stroke_width_thin" d="M19.59767006744355 0.0 L20.875772038679152 3.333333333333333" marker-end="url(#arrow)"/><path class="stroke_black stroke_width_thin" d="M19.59767006744355 0.0 L18.319568096207945 3.333333333333333" marker-end="url(#arrow)"/><path class="stroke_black stroke_width_thin fill_none" d="M 28.36686970342117 0.0C 28.050940010317667 1.1111111111111112, 27.73501031721417 2.2222222222222223, 26.733739406842343 3.333333333333333C 25.732468496470517 4.444444444444444, 24.04585636883037 5.5555555555555545, 23.325467483547396 6.666666666666666C 22.60507859826442 7.777777777777778, 22.850912955338618 8.88888888888889, 22.650913665395272 10.0C 22.450914375451926 11.11111111111111, 21.805081438491033 12.222222222222225, 21.940857014708826 13.333333333333332C 22.076632590926618 14.44444444444444, 22.994016680323117 15.555555555555557, 21.5858286893656 16.666666666666668C 20.17764069840808 17.77777777777778, 16.443880627096544 18.88888888888889, 12.710120555785007 20.0"></path><path class="stroke_black stroke_width_thin fill_none" d="M 28.36686970342117 0.0C 29.122594527581256 1.1111111111111112, 29.878319351741336 2.2222222222222223, 30.0 3.333333333333333C 30.121680648258664 4.444444444444444, 29.6093171206159 5.5555555555555545, 29.325446181847877 6.666666666666666C 29.041575243079855 7.777777777777778, 28.986196893186566 8.88888888888889, 28.47337820102414 10.0C 27.960559508861714 11.11111111111111, 26.990300474430125 12.222222222222225, 26.911253569513953 13.333333333333332C 26.83220666459778 14.44444444444444, 27.644371889197053 15.555555555555557, 25.881671426018606 16.666666666666668C 24.11897096284016 17.77777777777778, 19.781404811883995 18.88888888888889, 15.44383866092783 20.0"></path><path class="stroke_black stroke_width_thin fill_none" d="M 7.8817353311171665 0.0C 8.4908820077926 1.1111111111111112, 9.10002868446803 2.2222222222222223, 9.514865627695995 3.333333333333333C 9.92970257092396 4.444444444444444, 10.150229780704466 5.5555555555555545, 10.402436441054054 6.666666666666666C 10.654643101403641 7.777777777777778, 10.938529212322324 8.88888888888889, 11.290007254412114 10.0C 11.641485296501903 11.11111111111111, 12.060555269762808 12.222222222222225, 12.88763471845662 13.333333333333332C 13.714714167150433 14.44444444444444, 14.949803091277145 15.555555555555557, 15.44383866092783 16.666666666666668C 15.937874230578513 17.77777777777778, 15.690856445753171 18.88888888888889, 15.44383866092783 20.0"></path><path class="stroke_black stroke_width_thin fill_none" d="M 7.8817353311171665 0.0C 7.184271565474946 1.1111111111111112, 6.486807799832724 2.2222222222222223, 6.248605034538338 3.333333333333333C 6.010402269243952 4.444444444444444, 6.231460504297404 5.5555555555555545, 6.319610699606983 6.666666666666666C 6.407760894916562 7.777777777777778, 6.363003050482266 8.88888888888889, 6.390616364675628 10.0C 6.41822967886899 11.11111111111111, 6.518214151690009 12.222222222222225, 6.3551135321413055 13.333333333333332C 6.192012912592602 14.44444444444444, 5.765827200674177 15.555555555555557, 6.3551135321413055 16.666666666666668C 6.944399863608434 17.77777777777778, 8.549158238461116 18.88888888888889, 10.153916613313799 20.0"></path><path class="stroke_black stroke_width_thin fill_none" d="M 1.6331302965788286 0.0C 2.1953945270471964 1.1111111111111112, 2.7576587575155638 2.2222222222222223, 3.0888529389836483 3.333333333333333C 3.420047120451733 4.444444444444444, 3.520171252919538 5.5555555555555545, 3.0888529389836483 6.666666666666666C 2.6575346250477585 7.777777777777778, 1.6947738647081732 8.88888888888889, 3.124355771517971 10.0C 4.5539376783277685 11.11111111111111, 8.375862252286952 12.222222222222225, 9.621374125298962 13.333333333333332C 10.866885998310972 14.44444444444444, 9.535985170375815 15.555555555555557, 9.621374125298962 16.666666666666668C 9.706763080222109 17.77777777777778, 11.208441818003557 18.88888888888889, 12.710120555785007 20.0"></path><path class="stroke_black stroke_width_thin fill_none" d="M 1.6331302965788286 0.0C 0.9749626287171124 1.1111111111111112, 0.3167949608553961 2.2222222222222223, 0.10650849760296709 3.333333333333333C -0.10377796564946193 4.444444444444444, 0.13381677570739625 5.5555555555555545, 0.07100566506864472 6.666666666666666C 0.008194554429893211 7.777777777777778, -0.355022408204468 8.88888888888889, 0.0 10.0C 0.355022408204468 11.11111111111111, 1.4282841872477654 12.222222222222225, 1.6331302965788286 13.333333333333332C 1.8379764059098918 14.44444444444444, 1.1744068455287224 15.555555555555557, 2.449801953365846 16.666666666666668C 3.72519706120297 17.77777777777778, 6.939556837258384 18.88888888888889, 10.153916613313799 20.0"></path><path class="stroke_black stroke_width_thin fill_none" d="M 23.609490143821972 0.0C 24.050316981123142 1.1111111111111112, 24.491143818424312 2.2222222222222223, 23.609490143821972 3.333333333333333C 22.727836469219632 4.444444444444444, 20.52370228271379 5.555555555555555, 18.319568096207945 6.666666666666666"></path><path class="stroke_black stroke_width_thin fill_none" d="M 15.585849991065118 0.0C 15.358040148969883 1.1111111111111112, 15.130230306874648 2.2222222222222223, 15.585849991065118 3.333333333333333C 16.041469675255588 4.444444444444444, 17.180518885731765 5.555555555555555, 18.319568096207945 6.666666666666666"></path><path class="stroke_black stroke_width_thin fill_none" d="M 12.639114890716362 0.0C 12.16574379025873 1.1111111111111112, 11.692372689801099 2.2222222222222223, 12.639114890716362 3.333333333333333C 13.585857091631626 4.444444444444444, 15.952712593919784 5.555555555555555, 18.319568096207945 6.666666666666666"></path>
</g>
</svg>
